<?xml version="1.0" encoding="UTF-8" standalone="no"?>
<svg
   xmlns:dc="http://purl.org/dc/elements/1.1/"
   xmlns:cc="http://creativecommons.org/ns#"
   xmlns:rdf="http://www.w3.org/1999/02/22-rdf-syntax-ns#"
   xmlns:svg="http://www.w3.org/2000/svg"
   xmlns="http://www.w3.org/2000/svg"
   xmlns:sodipodi="http://sodipodi.sourceforge.net/DTD/sodipodi-0.dtd"
   xmlns:inkscape="http://www.inkscape.org/namespaces/inkscape"
   height="302.23706"
   width="217"
   inkscape:version="1.0 (4035a4fb49, 2020-05-01)"
   sodipodi:docname="CodingIllustration.svg"
   id="svg340"
   version="1.1"
   viewBox="0 0 217 302.23706">
  <metadata
     id="metadata346">
    <rdf:RDF>
      <cc:Work
         rdf:about="">
        <dc:format>image/svg+xml</dc:format>
        <dc:type
           rdf:resource="http://purl.org/dc/dcmitype/StillImage" />
        <dc:title></dc:title>
      </cc:Work>
    </rdf:RDF>
  </metadata>
  <defs
     id="defs344" />
  <sodipodi:namedview
     fit-margin-bottom="0"
     fit-margin-right="0"
     fit-margin-left="0"
     fit-margin-top="0"
     inkscape:current-layer="svg340"
     inkscape:window-maximized="1"
     inkscape:window-y="-8"
     inkscape:window-x="1672"
     inkscape:cy="81.974759"
     inkscape:cx="336.08895"
     inkscape:zoom="1.1233314"
     showgrid="false"
     id="namedview342"
     inkscape:window-height="1027"
     inkscape:window-width="1920"
     inkscape:pageshadow="2"
     inkscape:pageopacity="0"
     guidetolerance="10"
     gridtolerance="10"
     objecttolerance="10"
     borderopacity="1"
     bordercolor="#666666"
     pagecolor="#ffffff"
     inkscape:document-rotation="0" />
  <path
     d="m 39.07,202.23705 h 86.19 c -3,-6.54 -8.47,-10.55 -14.37,-10.55 h -67 z"
     style="fill:#550000"
     id="path135" />
  <path
     d="m 24.55,202.23705 h 34.52 c -3,-6.54 -8.47,-10.55 -14.38,-10.55 H 32.47 c -5.9,0 -8.83,3.41 -7.92,10.55 z"
     style="fill:#800000"
     id="path137" />
  <polygon
     transform="translate(-143.24,-114.00295)"
     points="197.36,414.96 212.9,414.96 221.11,414.96 236.65,414.96 228.59,407.5 221.11,407.5 221.11,316.24 212.9,316.24 212.9,407.5 205.42,407.5 "
     style="fill:#ff0000"
     id="polygon141" />
  <polygon
     transform="translate(-143.24,-114.00295)"
     points="221.11,414.96 236.65,414.96 228.59,407.5 221.11,407.5 221.11,316.24 212.9,316.24 212.9,407.5 205.42,407.5 197.36,414.96 212.9,414.96 "
     style="opacity:0.7;fill:#800000"
     id="polygon143" />
  <rect
     x="69.659996"
     y="202.23703"
     width="8.21"
     height="3.0599999"
     style="opacity:0.5;fill:#000000"
     id="rect145" />
  <polygon
     transform="translate(-143.24,-114.00295)"
     points="281.55,381.16 272.58,383.43 274.71,404.95 283.68,402.68 "
     style="fill:#b55b52"
     id="polygon147" />
  <path
     d="m 140.83,284.70705 -10.3,1.29 a 0.66,0.66 0 0 0 -0.6,0.72 l 0.55,8.21 a 1.64,1.64 0 0 0 1.82,1.42 c 3.57,-0.52 5,-0.91 9.52,-1.82 a 131.68,131.68 0 0 0 13,-3.17 c 3.59,-1.21 2.34,-4.84 0.67,-4.64 -3.95,0.47 -10.17,0 -13,-1.69 a 2.67,2.67 0 0 0 -1.66,-0.32 z"
     style="fill:#1a1a1a"
     id="path149" />
  <polygon
     transform="translate(-143.24,-114.00295)"
     points="282.58,391.53 273.57,393.49 272.58,383.44 281.56,381.17 "
     style="opacity:0.2"
     id="polygon151" />
  <path
     d="m 70.76,161.53705 c 0,0 66.47,-2.23 66.69,24.28 0.31,38.09 4.45,85.38 4.45,85.38 l -16.74,2.48 c 0,0 -11.4,-45.39 -11.19,-75.13 -18.69,-5.28 -67.23,-1.84 -72.95,-17.33 -4.67,-12.68 -2.23,-19.68 -2.23,-19.68 z"
     style="fill:#1a1a1a"
     id="path153" />
  <path
     d="m 98.01,169.70705 c 0,0 -2,15.16 4.91,26.85 a 74.05,74.05 0 0 1 11.06,2 78.84,78.84 0 0 0 0.46,8.65 c 11.12,-16.59 2.02,-35.41 -16.43,-37.5 z"
     style="opacity:0.3"
     id="path155" />
  <polygon
     transform="translate(-143.24,-114.00295)"
     points="286.81,380.91 265.29,384.7 267.1,392.08 286.49,388.43 "
     style="fill:#ff0000"
     id="polygon157" />
  <path
     d="m 144.28,285.88705 a 11.35,11.35 0 0 1 -2.48,0 0.23,0.23 0 0 1 -0.19,-0.15 0.22,0.22 0 0 1 0.06,-0.22 c 0.27,-0.24 2.64,-2.35 3.81,-2.06 a 0.85,0.85 0 0 1 0.58,0.54 1.2,1.2 0 0 1 -0.12,1.2 2.53,2.53 0 0 1 -1.66,0.69 z m -1.94,-0.4 c 1.69,0.12 2.89,-0.09 3.26,-0.57 a 0.78,0.78 0 0 0 0.05,-0.78 0.37,0.37 0 0 0 -0.27,-0.27 c -0.62,-0.16 -2.06,0.81 -3.04,1.62 z"
     style="fill:#ff0000"
     id="path159" />
  <path
     d="m 141.85,285.87705 h -0.09 a 0.21,0.21 0 0 1 -0.13,-0.16 c 0,-0.11 -0.57,-2.72 0.24,-3.73 a 1.11,1.11 0 0 1 0.87,-0.42 0.83,0.83 0 0 1 0.85,0.55 c 0.34,1 -0.78,3.06 -1.62,3.73 z m 0.77,-3.88 a 0.66,0.66 0 0 0 -0.44,0.25 c -0.48,0.6 -0.36,2.12 -0.22,3 0.71,-0.78 1.43,-2.35 1.21,-3 -0.05,-0.12 -0.14,-0.26 -0.45,-0.26 z"
     style="fill:#ff0000"
     id="path161" />
  <polygon
     transform="translate(-143.24,-114.00295)"
     points="246.59,384 237.42,385.16 235.92,406.93 245.09,405.76 "
     style="fill:#b55b52"
     id="polygon163" />
  <path
     d="m 102.06,290.49705 -10.38,-0.33 a 0.67,0.67 0 0 0 -0.71,0.61 l -0.76,8.2 a 1.64,1.64 0 0 0 1.57,1.69 c 3.61,0.05 5.34,-0.11 9.91,0 2.81,0.09 8.33,0.5 12.18,0 3.85,-0.5 3.26,-4.28 1.59,-4.42 -4,-0.32 -9.29,-3.06 -11.83,-5.19 a 2.59,2.59 0 0 0 -1.57,-0.56 z"
     style="fill:#1a1a1a"
     id="path165" />
  <path
     d="m 105.28,292.20705 a 10.88,10.88 0 0 1 -2.45,-0.41 0.23,0.23 0 0 1 -0.16,-0.17 0.22,0.22 0 0 1 0.1,-0.21 c 0.3,-0.2 3,-1.9 4.09,-1.43 a 0.83,0.83 0 0 1 0.48,0.63 1.19,1.19 0 0 1 -0.31,1.16 2.52,2.52 0 0 1 -1.75,0.43 z m -1.85,-0.7 c 1.64,0.38 2.86,0.37 3.31,-0.05 a 0.76,0.76 0 0 0 0.17,-0.76 0.38,0.38 0 0 0 -0.22,-0.31 c -0.6,-0.26 -2.16,0.47 -3.26,1.12 z"
     style="fill:#ff0000"
     id="path167" />
  <path
     d="m 102.88,291.80705 a 0.19,0.19 0 0 1 -0.1,0 0.2,0.2 0 0 1 -0.11,-0.17 c 0,-0.12 -0.13,-2.78 0.83,-3.65 a 1.1,1.1 0 0 1 0.92,-0.27 0.81,0.81 0 0 1 0.76,0.68 c 0.19,1 -1.25,2.9 -2.19,3.41 a 0.2,0.2 0 0 1 -0.11,0 z m 1.38,-3.7 a 0.64,0.64 0 0 0 -0.47,0.17 c -0.57,0.52 -0.7,2 -0.7,2.92 0.83,-0.66 1.79,-2.09 1.67,-2.76 0,-0.12 -0.09,-0.28 -0.4,-0.32 z"
     style="fill:#ff0000"
     id="path169" />
  <polygon
     transform="translate(-143.24,-114.00295)"
     points="245.73,396.45 236.59,397.16 237.42,385.17 246.59,384 "
     style="opacity:0.2"
     id="polygon171" />
  <path
     d="m 48.15,161.53705 c 0,0 66.37,6.28 64,26.26 -3.49,28.81 -5.21,90.91 -5.21,90.91 l -16.92,0.67 c 0,0 -7.17,-56 -3.46,-85.52 -17.17,0 -59.22,1.23 -63.06,-9.12 -3.38,-9.14 -2.17,-23.2 -2.17,-23.2 z"
     style="fill:#1a1a1a"
     id="path173" />
  <polygon
     transform="translate(-143.24,-114.00295)"
     points="252.39,384.58 230.12,386.11 231.35,394.42 251.66,393.41 "
     style="fill:#ff0000"
     id="polygon175" />
  <path
     d="m 76.84,101.82705 0.57,4.6 c 0.2,1.56 0.42,3.12 0.66,4.67 0.5,3.11 1,6.21 1.63,9.25 0.63,3.04 1.31,6 2.13,8.9 a 44,44 0 0 0 3,7.85 13.93,13.93 0 0 0 1.73,2.66 c 0.1,0.12 0.31,0.32 0.52,0.52 0.21,0.2 0.43,0.4 0.65,0.6 0.46,0.39 1,0.79 1.51,1.18 a 47.66,47.66 0 0 0 7.54,4.27 164.07,164.07 0 0 0 17.54,6.67 l -1.08,6.86 a 80.22,80.22 0 0 1 -10.22,-1 c -1.68,-0.26 -3.37,-0.58 -5,-1 -1.63,-0.42 -3.38,-0.8 -5.06,-1.31 a 49.92,49.92 0 0 1 -10.2,-4.13 29.42,29.42 0 0 1 -2.55,-1.58 c -0.42,-0.3 -0.84,-0.59 -1.26,-0.94 a 16.23,16.23 0 0 1 -1.31,-1.11 25.37,25.37 0 0 1 -4.12,-5.19 53.3,53.3 0 0 1 -4.62,-10.21 101.6,101.6 0 0 1 -2.85,-10.08 c -0.76,-3.35 -1.43,-6.7 -1.92,-10.06 -0.26,-1.68 -0.49,-3.36 -0.71,-5 -0.22,-1.64 -0.38,-3.33 -0.52,-5.16 z"
     style="fill:#b55b52"
     id="path177" />
  <path
     d="m 62.82,95.147046 c 6.79,-6.55 15.15,-2.68 18.49,9.600004 a 113.63,113.63 0 0 1 3.86,20.14 l -21.49,4.44 c -3.92,-11.72 -7.8,-27.46 -0.86,-34.180004 z"
     style="fill:#ff0000"
     id="path179" />
  <path
     d="m 69.76,108.55705 c -1.54,-1.38 -5.9,4.81 -8.57,12.48 0.76,2.86 1.62,5.68 2.49,8.3 l 12.93,-2.68 c -1.04,-7.66 -3.42,-14.99 -6.85,-18.1 z"
     style="opacity:0.3"
     id="path181" />
  <path
     d="m 113,151.24705 5.12,0.32 -4.09,9.4 c 0,0 -8.83,-0.21 -8.64,-4.55 l 1.59,-2.08 a 8.32,8.32 0 0 1 6.02,-3.09 z"
     style="fill:#b55b52"
     id="path183" />
  <polygon
     transform="translate(-143.24,-114.00295)"
     points="257.27,274.97 261.36,265.57 266.94,266.33 262.52,274.97 "
     style="fill:#b55b52"
     id="polygon185" />
  <path
     d="m 63.62,88.577046 -10.3,-2.94 -13.24,-0.64 a 9.19,9.19 0 0 0 -9.16,6.33 c -2.53,7.7 -4.85,18.850004 -6.54,28.470004 -1.9,10.78 -2.89,27 -3.09,41.73 h 49.47 c 1.13,-30.73 5,-48.9 6.77,-59 a 9.16,9.16 0 0 0 -5.09,-9.830004 z"
     style="fill:#ff0000"
     id="path187" />
  <path
     d="m 29.34,96.667046 c -1.91,7.000004 -3.63,15.570004 -5,23.140004 a 217.28,217.28 0 0 0 -2.43,23.33 c 8.15,-0.81 17.15,-10.19 20,-22.82 2.85,-12.32 -3.76,-25.140004 -12.57,-23.650004 z"
     style="opacity:0.3"
     id="path189" />
  <path
     d="m 57.43,68.907046 4,6.11 5.45,8.33 a 8.23,8.23 0 0 0 -1.68,2.46 c -1,2 -1.82,3.51 2.39,6.38 a 2.78,2.78 0 0 1 1.26,2.76 c -0.24,1.3 -1.54,2.56 -6.09,1.76 a 20.92,20.92 0 0 1 -11.4,-6.33 c -1.52,-1.51 -1.17,-2.65 0.29,-4.22 4.11,-4.44 5.37,-11.53 5.78,-17.25 z"
     style="fill:#b55b52"
     id="path191" />
  <path
     d="m 65.54,81.297046 -3.34,-5.94 -0.23,0.49 a 16.2,16.2 0 0 0 -0.72,2.28 c -0.61,2.63 1.44,6.4 3.69,8.19 l 0.26,-0.51 a 9.92,9.92 0 0 1 1.54,-2.36 0.67,0.67 0 0 1 0.14,-0.11 z"
     style="opacity:0.2"
     id="path193" />
  <path
     d="m 64.01,104.81705 a 0.29,0.29 0 0 1 -0.07,-0.56 l 0.71,-0.17 c 3.62,-0.79 12.1,-2.64 11.33,-35.180004 a 0.29,0.29 0 0 1 0.28,-0.29 v 0 a 0.29,0.29 0 0 1 0.29,0.28 c 0.78,33.000004 -8,34.930004 -11.78,35.750004 -0.25,0 -0.48,0.1 -0.68,0.16 z"
     style="fill:#1a1a1a"
     id="path195" />
  <path
     d="m 84.33,59.847046 c -1.46,-4.36 -6.7,-1.46 -6.7,-1.46 0,0 -0.07,9.13 2.74,11.47 2.81,2.34 5.39,-5.61 3.96,-10.01 z"
     style="fill:#1a1a1a"
     id="path197" />
  <path
     d="m 58.84,58.087046 c -1.61,9.06 -3,14.26 0.35,20.07 a 12,12 0 0 0 21.16,-0.61 c 3.83,-7.47 5.81,-21 -2,-27 a 12.1,12.1 0 0 0 -19.51,7.54 z"
     style="fill:#b55b52"
     id="path199" />
  <path
     d="m 57.13,63.417046 c -2.44,3.88 3.65,5.3 3.65,5.3 0,0 7.29,-5.49 7.44,-9.14 0.15,-3.65 -9.15,0.76 -11.09,3.84 z"
     style="fill:#1a1a1a"
     id="path201" />
  <path
     d="m 54.76,64.877046 c -1.2,-1 -2.52,-4.81 -1.51,-8.16 1.01,-3.35 4.23,-7 7.13,-5.81 1.08,-3.09 15.92,-6.89 20.88,0 5.78,8.05 2.75,12.19 -2.06,9.07 l -8.8,-2.85 z"
     style="fill:#263238"
     id="path203" />
  <path
     d="m 81.13,59.247046 c -2.35,2.78 -11.26,2.15 -11.26,2.15 l 2.92,-3.2 a 9.76,9.76 0 0 1 -6.76,1.87 c -4.37,-0.25 -2,-4.74 -2,-4.74 0,0 21.52,-1.33 17.1,3.92 z"
     style="fill:#1a1a1a"
     id="path205" />
  <path
     d="m 53.96,64.647046 a 8.14,8.14 0 0 0 1.83,5.51 c 1.66,2 4.22,0.4 4.82,-2.06 0.53,-2.21 -0.16,-5.64 -2.34,-6.7 -2.18,-1.06 -4.2,0.77 -4.31,3.25 z"
     style="fill:#b55b52"
     id="path207" />
  <path
     d="m 53.09,58.897046 a 10.78,10.78 0 0 1 2.35,-8.48 c -0.82,0.19 -3.39,-1.32 1.34,-4.48 4.73,-3.16 14.55,-4 19.44,-1.59 9.58,4.7 6.93,10.26 6.93,10.26 z"
     style="fill:#ff0000"
     id="path209" />
  <path
     d="m 53.09,58.897046 a 10.78,10.78 0 0 1 2.35,-8.48 c -0.82,0.19 -3.39,-1.32 1.34,-4.48 4.73,-3.16 14.55,-4 19.44,-1.59 9.58,4.7 6.93,10.26 6.93,10.26 z"
     style="opacity:0.3;fill:#800000"
     id="path211" />
  <path
     d="m 53.28,64.597046 c 1.66,0.06 3.27,-4.95 17.34,-7.48 5.68,-1 11.63,0.8 13.29,2.44 1.66,1.64 0.88,-3.75 0.28,-5.68 -0.6,-1.93 -9.39,-3.47 -15.1,-2.78 -9.91,1.19 -15.86,6.24 -16.68,7.51 -0.82,1.27 -0.65,5.95 0.87,5.99 z"
     style="fill:#ff0000"
     id="path213" />
  <path
     d="m 58.46,65.997046 a 1.73,1.73 0 0 1 -0.73,2.26 c -0.73,0.23 -1.59,-0.39 -1.92,-1.4 a 1.73,1.73 0 0 1 0.73,-2.26 c 0.73,-0.23 1.59,0.4 1.92,1.4 z"
     style="fill:#1a1a1a"
     id="path215" />
  <path
     d="m 59.64,160.53705 c -1.72,0 -2.86,-0.46 -3.49,-1.41 -1.54,-2.3 0.43,-7.05 2.52,-12.08 2,-4.7 4,-9.57 3.44,-12.91 -1,-6.37 -0.08,-14.41 0.82,-22.18 0.3,-2.56 0.58,-5 0.79,-7.32 -3.87,-4 -7.77,-9.130004 -5.72,-19.690004 1.36,-7 1.06,-12.8 -0.89,-17.3 a 0.27,0.27 0 0 1 0.14,-0.37 0.29,0.29 0 0 1 0.38,0.14 c 2,4.62 2.31,10.55 0.93,17.64 -2,10.37 1.86,15.390004 5.66,19.270004 a 0.32,0.32 0 0 1 0.07,0.23 c -0.21,2.39 -0.49,4.86 -0.8,7.47 -0.89,7.73 -1.82,15.73 -0.82,22 0.56,3.5 -1.49,8.44 -3.48,13.22 -1.99,4.78 -3.94,9.5 -2.57,11.55 0.52,0.78 1.51,1.16 3,1.16 a 0.28,0.28 0 0 1 0,0.56 z"
     style="fill:#1a1a1a"
     id="path217" />
  <path
     d="m 72.65,66.467046 c -0.23,0.71 0,1.42 0.41,1.59 0.41,0.17 1,-0.27 1.24,-1 0.24,-0.73 0.06,-1.42 -0.4,-1.59 -0.46,-0.17 -1.02,0.29 -1.25,1 z"
     style="fill:#1a1a1a"
     id="path219" />
  <ellipse
     cx="-43.35408"
     cy="97.962189"
     rx="1.35"
     ry="0.88"
     transform="rotate(-73.31)"
     style="fill:#1a1a1a"
     id="ellipse221" />
  <path
     d="m 77.85,68.997046 a 23.82,23.82 0 0 0 0.74,6.27 c -1.42,0.52 -3,-0.71 -3,-0.71 z"
     style="fill:#a02724"
     id="path223" />
  <path
     d="m 73.61,78.447046 a 6.45,6.45 0 0 1 -3.77,-3.33 0.22,0.22 0 0 1 0.12,-0.28 0.22,0.22 0 0 1 0.29,0.12 6.13,6.13 0 0 0 4.29,3.3 0.22,0.22 0 0 1 0.17,0.26 0.22,0.22 0 0 1 -0.26,0.17 7.41,7.41 0 0 1 -0.84,-0.24 z"
     style="fill:#1a1a1a"
     id="path225" />
  <path
     d="m 71.92,63.407046 a 0.45,0.45 0 0 1 -0.16,-0.15 0.43,0.43 0 0 1 0.14,-0.6 4.21,4.21 0 0 1 3.93,-0.41 0.44,0.44 0 1 1 -0.38,0.79 3.36,3.36 0 0 0 -3.08,0.35 0.45,0.45 0 0 1 -0.45,0.02 z"
     style="fill:#1a1a1a"
     id="path227" />
  <path
     d="m 82.13,64.797046 a 0.42,0.42 0 0 1 0,-0.22 0.44,0.44 0 0 1 0.57,-0.24 4.19,4.19 0 0 1 2.57,3 0.44,0.44 0 0 1 -0.86,0.14 3.36,3.36 0 0 0 -2.05,-2.34 0.41,0.41 0 0 1 -0.23,-0.34 z"
     style="fill:#1a1a1a"
     id="path229" />
  <path
     d="m 44.76,98.727046 c -0.83,1.500004 -1.74,3.210004 -2.6,4.830004 -0.86,1.62 -1.71,3.31 -2.53,5 -1.65,3.33 -3.2,6.68 -4.61,10 a 77.64,77.64 0 0 0 -3.46,10 30.88,30.88 0 0 0 -0.84,4.56 c -0.17,1.33 0.07,2.77 0,2.46 a 6,6 0 0 0 1.9,2 24.11,24.11 0 0 0 4,2.41 73.13,73.13 0 0 0 10,3.92 c 3.46,1.09 7.14,2.09 10.75,3.09 3.61,1 7.42,1.78 11.06,2.58 l -0.68,6.91 a 135.68,135.68 0 0 1 -23.79,-2.49 74.26,74.26 0 0 1 -12,-3.37 35.76,35.76 0 0 1 -6.19,-3.05 17.64,17.64 0 0 1 -6.17,-6.15 13.2,13.2 0 0 1 -1.09,-2.63 l -0.19,-0.69 -0.11,-0.54 c -0.09,-0.37 -0.14,-0.71 -0.2,-1.07 a 24.87,24.87 0 0 1 -0.25,-3.95 38.09,38.09 0 0 1 0.79,-6.91 77.37,77.37 0 0 1 3.56,-12.15 c 1.43,-3.84 3.06,-7.54 4.81,-11.16 q 1.32,-2.720004 2.73,-5.370004 c 0.94,-1.8 1.89,-3.48 3,-5.33 z"
     style="fill:#b55b52"
     id="path231" />
  <path
     d="m 37.15,85.167046 c 9.32,-1.42 13.9,6.58 9.52,18.520004 a 113.84,113.84 0 0 1 -8.52,18.65 l -20.09,-8.81 c 3.6,-11.82 9.53,-26.910004 19.09,-28.360004 z"
     style="fill:#ff0000"
     id="path233" />
  <path
     d="m 69.24,149.65705 5.58,1.91 -7.41,7.08 c 0,0 -9.05,-3.25 -7.2,-7.18 l 2.28,-1.3 a 8.3,8.3 0 0 1 6.75,-0.51 z"
     style="fill:#b55b52"
     id="path235" />
  <polygon
     transform="translate(-143.24,-114.00295)"
     points="210.66,272.65 218.06,265.57 224.63,269.33 216.26,274.26 "
     style="fill:#b55b52"
     id="polygon237" />
  <rect
     x="5.4299984"
     y="160.67703"
     width="207.62"
     height="6.7600002"
     style="fill:#ff0000"
     id="rect240" />
  <rect
     x="5.4299984"
     y="160.67703"
     width="207.62"
     height="6.7600002"
     style="opacity:0.4;fill:#800000"
     id="rect242" />
  <rect
     x="-46.849995"
     y="-167.43704"
     width="41.43"
     height="6.7600002"
     transform="scale(-1)"
     style="opacity:0.5;fill:#800000"
     id="rect244" />
  <path
     d="M 156.82,158.43705 H 58.99 a 2.25,2.25 0 0 0 -2.24,2.24 h 102.32 a 2.25,2.25 0 0 0 -2.25,-2.24 z"
     style="fill:#ff0000"
     id="path246" />
  <path
     d="m 169.76,112.66705 h -66.85 a 2.07,2.07 0 0 0 -1.88,1.48 l -11,41.24 a 1.1,1.1 0 0 0 1.09,1.48 H 158 a 2,2 0 0 0 1.87,-1.48 l 11,-41.24 a 1.1,1.1 0 0 0 -1.11,-1.48 z"
     style="fill:#ff0000"
     id="path248" />
  <path
     d="m 101.03,114.14705 -11,41.24 a 1.1,1.1 0 0 0 1.09,1.48 l 11.76,-44.2 a 2.07,2.07 0 0 0 -1.85,1.48 z"
     style="opacity:0.2"
     id="path250" />
  <path
     d="M 87.54,158.43705 H 58.99 a 2.25,2.25 0 0 0 -2.24,2.24 h 33 a 2.25,2.25 0 0 0 -2.21,-2.24 z"
     style="opacity:0.2"
     id="path252" />
  <path
     d="m 48.32,302.23705 h 4 l -5.61,-30.9 h 3.49 v -4 h -4.24 l -17.42,-95.94 h 2.57 v -4 h -9.94 v 4 h 2.59 l -17.42,95.94 H 2.12 v 4 h 3.49 l -5.61,30.9 h 4 l 5.61,-30.9 h 33.15 z m -38,-34.88 15.85,-87.25 15.84,87.25 z"
     style="fill:#ff0000"
     id="path254" />
  <path
     d="m 213,298.55705 h 4 l -5.61,-27.22 h 3.49 v -4 h -4.22 l -17.42,-95.94 h 2.52 v -4 h -9.94 v 4 h 2.57 l -17.42,95.94 h -4.21 v 4 h 3.49 l -5.61,27.22 h 4 l 5.61,-27.22 h 33.14 z m -38,-31.2 15.84,-87.25 15.85,87.25 z"
     style="fill:#ff0000"
     id="path256" />
  <rect
     x="168.15999"
     y="158.43704"
     width="27.1"
     height="2.24"
     rx="0.73000002"
     style="fill:#1a1a1a"
     id="rect258" />
  <path
     d="m 123.36,104.93705 a 1.29,1.29 0 0 1 -1.3,-1.43 l 4.11,-46.240004 a 1.6,1.6 0 0 1 1.56,-1.43 h 56.28 a 1.29,1.29 0 0 1 1.3,1.43 l -4.11,46.240004 a 1.6,1.6 0 0 1 -1.56,1.43 z"
     style="opacity:0.9;fill:#1a1a1a"
     id="path261" />
  <polygon
     transform="translate(-143.24,-114.00295)"
     points="281.62,183.03 314.19,183.03 314.08,184.23 281.51,184.23 "
     style="fill:#ffffff"
     id="polygon263" />
  <polygon
     transform="translate(-143.24,-114.00295)"
     points="284.79,184.95 319.3,184.95 319.19,186.15 284.69,186.15 "
     style="fill:#ff0000"
     id="polygon265" />
  <polygon
     transform="translate(-143.24,-114.00295)"
     points="284.62,186.87 313.21,186.87 313.11,188.07 284.52,188.07 "
     style="fill:#ff0000"
     id="polygon267" />
  <polygon
     transform="translate(-143.24,-114.00295)"
     points="284.45,188.79 310.06,188.79 309.95,189.99 284.35,189.99 "
     style="fill:#ff0000"
     id="polygon269" />
  <polygon
     transform="translate(-143.24,-114.00295)"
     points="280.83,191.91 301.99,191.91 301.89,193.12 280.73,193.12 "
     style="fill:#ffffff"
     id="polygon271" />
  <polygon
     transform="translate(-143.24,-114.00295)"
     points="283.56,198.88 306.27,198.88 306.38,197.67 283.66,197.67 "
     style="fill:#ff0000"
     id="polygon273" />
  <polygon
     transform="translate(-143.24,-114.00295)"
     points="283.73,196.96 302.55,196.96 302.66,195.75 283.83,195.75 "
     style="fill:#ff0000"
     id="polygon275" />
  <polygon
     transform="translate(-143.24,-114.00295)"
     points="283.9,195.04 304.63,195.04 304.74,193.83 284,193.83 "
     style="fill:#ff0000"
     id="polygon277" />
  <polygon
     transform="translate(-143.24,-114.00295)"
     points="279.53,206.56 300.69,206.56 300.58,207.76 279.42,207.76 "
     style="fill:#ffffff"
     id="polygon279" />
  <polygon
     transform="translate(-143.24,-114.00295)"
     points="282.25,213.52 304.97,213.52 305.08,212.32 282.36,212.32 "
     style="fill:#ff0000"
     id="polygon281" />
  <polygon
     transform="translate(-143.24,-114.00295)"
     points="282.43,211.6 301.25,211.6 301.36,210.4 282.53,210.4 "
     style="fill:#ff0000"
     id="polygon283" />
  <polygon
     transform="translate(-143.24,-114.00295)"
     points="282.6,209.68 303.33,209.68 303.44,208.48 282.7,208.48 "
     style="fill:#ff0000"
     id="polygon285" />
  <polygon
     transform="translate(-143.24,-114.00295)"
     points="274.96,174.07 292.15,174.07 292.04,175.28 274.86,175.28 "
     style="fill:#ffffff"
     id="polygon287" />
  <polygon
     transform="translate(-143.24,-114.00295)"
     points="277.06,181.04 295.51,181.04 295.62,179.83 277.17,179.83 "
     style="fill:#ffffff"
     id="polygon289" />
  <polygon
     transform="translate(-143.24,-114.00295)"
     points="277.23,179.12 292.52,179.12 292.62,177.91 277.34,177.91 "
     style="fill:#ffffff"
     id="polygon291" />
  <polygon
     transform="translate(-143.24,-114.00295)"
     points="277.4,177.2 294.24,177.2 294.34,175.99 277.51,175.99 "
     style="fill:#ffffff"
     id="polygon293" />
  <polygon
     transform="translate(-143.24,-114.00295)"
     points="283.04,204.64 305.76,204.64 305.87,203.43 283.15,203.43 "
     style="fill:#ff0000"
     id="polygon295" />
  <polygon
     transform="translate(-143.24,-114.00295)"
     points="283.21,202.72 302.04,202.72 302.15,201.51 283.32,201.51 "
     style="fill:#ff0000"
     id="polygon297" />
  <polygon
     transform="translate(-143.24,-114.00295)"
     points="283.39,200.8 304.12,200.8 304.23,199.59 283.49,199.59 "
     style="fill:#ff0000"
     id="polygon299" />
  <path
     d="m 202.48,49.417046 h -37.51 a 2.34,2.34 0 0 1 -2.36,-2.59 l 2.82,-31.71 a 2.79,2.79 0 0 1 2.73,-2.5 h 37.5 a 2.34,2.34 0 0 1 2.36,2.59 l -2.82,31.71 a 2.78,2.78 0 0 1 -2.72,2.5 z m -34.32,-35.8 a 1.79,1.79 0 0 0 -1.74,1.59 l -2.81,31.71 a 1.35,1.35 0 0 0 0.34,1.07 1.37,1.37 0 0 0 1,0.43 h 37.51 a 1.78,1.78 0 0 0 1.73,-1.59 l 2.82,-31.71 a 1.39,1.39 0 0 0 -0.35,-1.06 1.36,1.36 0 0 0 -1,-0.44 z"
     style="fill:#ff0000"
     id="path301" />
  <path
     d="m 206.96,22.067046 h -41.6 a 0.5,0.5 0 0 1 -0.5,-0.5 0.5,0.5 0 0 1 0.5,-0.5 h 41.6 a 0.5,0.5 0 0 1 0.5,0.5 0.51,0.51 0 0 1 -0.5,0.5 z"
     style="fill:#ff0000"
     id="path303" />
  <path
     d="m 172.76,49.417046 h -0.05 a 0.49,0.49 0 0 1 -0.45,-0.54 l 2.43,-27.36 a 0.51,0.51 0 0 1 0.54,-0.45 0.5,0.5 0 0 1 0.46,0.54 l -2.44,27.39 a 0.51,0.51 0 0 1 -0.49,0.42 z"
     style="fill:#ff0000"
     id="path305" />
  <path
     d="M 202.08,25.317046 H 179.5 a 0.5,0.5 0 0 1 -0.5,-0.5 0.5,0.5 0 0 1 0.5,-0.5 h 22.58 a 0.5,0.5 0 0 1 0.5,0.5 0.5,0.5 0 0 1 -0.5,0.5 z"
     style="fill:#ff0000"
     id="path307" />
  <path
     d="m 198.54,29.307046 h -19.4 a 0.51,0.51 0 0 1 -0.5,-0.5 0.5,0.5 0 0 1 0.5,-0.5 h 19.4 a 0.5,0.5 0 0 1 0.5,0.5 0.5,0.5 0 0 1 -0.5,0.5 z"
     style="fill:#ff0000"
     id="path309" />
  <path
     d="m 190.07,33.417046 h -11.31 a 0.5,0.5 0 0 1 -0.5,-0.5 0.5,0.5 0 0 1 0.5,-0.5 h 11.29 a 0.51,0.51 0 0 1 0.5,0.5 0.5,0.5 0 0 1 -0.48,0.5 z"
     style="fill:#ff0000"
     id="path311" />
  <path
     d="m 191.85,41.447046 h -13.79 a 0.5,0.5 0 0 1 -0.5,-0.5 0.51,0.51 0 0 1 0.5,-0.5 h 13.79 a 0.51,0.51 0 0 1 0.5,0.5 0.5,0.5 0 0 1 -0.5,0.5 z"
     style="fill:#ff0000"
     id="path313" />
  <path
     d="M 188.99,45.567046 H 177.7 a 0.5,0.5 0 0 1 0,-1 h 11.29 a 0.5,0.5 0 0 1 0,1 z"
     style="fill:#ff0000"
     id="path315" />
  <path
     d="m 195.6,45.567046 h -3.62 a 0.5,0.5 0 0 1 0,-1 h 3.62 a 0.5,0.5 0 0 1 0,1 z"
     style="fill:#ff0000"
     id="path317" />
  <path
     d="m 199.57,37.407046 h -21.15 a 0.5,0.5 0 0 1 0,-1 h 21.15 a 0.5,0.5 0 0 1 0,1 z"
     style="fill:#ff0000"
     id="path319" />
  <path
     d="m 124.9,46.307046 a 0.51,0.51 0 0 1 -0.36,-0.15 0.5,0.5 0 0 1 0,-0.7 l 2.5,-2.5 -2.5,-2.49 a 0.50204581,0.50204581 0 0 1 0.71,-0.71 l 2.85,2.85 a 0.51,0.51 0 0 1 0,0.71 l -2.85,2.84 a 0.49,0.49 0 0 1 -0.35,0.15 z"
     style="fill:#ffffff"
     id="path321" />
  <path
     d="m 116.36,46.307046 a 0.49,0.49 0 0 1 -0.35,-0.15 l -2.85,-2.84 a 0.51,0.51 0 0 1 0,-0.71 l 2.85,-2.85 a 0.50204581,0.50204581 0 1 1 0.71,0.71 l -2.5,2.49 2.5,2.5 a 0.5,0.5 0 0 1 0,0.7 0.51,0.51 0 0 1 -0.36,0.15 z"
     style="fill:#ffffff"
     id="path323" />
  <path
     d="m 119.56,46.307046 a 0.51,0.51 0 0 1 -0.17,0 0.5,0.5 0 0 1 -0.29,-0.64 l 2.13,-5.7 a 0.5,0.5 0 0 1 0.64,-0.29 0.5,0.5 0 0 1 0.3,0.64 l -2.14,5.7 a 0.49,0.49 0 0 1 -0.47,0.29 z"
     style="fill:#ffffff"
     id="path325" />
  <path
     d="m 188.69,120.09705 a 0.47,0.47 0 0 1 -0.35,-0.15 0.5,0.5 0 0 1 0,-0.71 l 2.49,-2.49 -2.49,-2.5 a 0.49497475,0.49497475 0 1 1 0.7,-0.7 l 2.85,2.84 a 0.53,0.53 0 0 1 0.15,0.36 0.51,0.51 0 0 1 -0.15,0.35 l -2.85,2.9 a 0.47,0.47 0 0 1 -0.35,0.1 z"
     style="fill:#ff0000"
     id="path327" />
  <path
     d="m 180.15,120.09705 a 0.5,0.5 0 0 1 -0.39,-0.1 l -2.85,-2.85 a 0.51,0.51 0 0 1 0,-0.71 l 2.85,-2.84 a 0.5,0.5 0 0 1 0.71,0 0.5,0.5 0 0 1 0,0.7 l -2.5,2.5 2.5,2.49 a 0.51,0.51 0 0 1 0,0.71 0.51,0.51 0 0 1 -0.32,0.1 z"
     style="fill:#ff0000"
     id="path329" />
  <path
     d="m 183.36,120.09705 a 0.39,0.39 0 0 1 -0.18,0 0.49,0.49 0 0 1 -0.29,-0.64 l 2.13,-5.7 a 0.50152268,0.50152268 0 0 1 0.94,0.35 l -2.14,5.7 a 0.49,0.49 0 0 1 -0.46,0.29 z"
     style="fill:#ff0000"
     id="path331" />
  <path
     d="m 166.11,6.6970458 a 0.51,0.51 0 0 1 -0.36,-0.15 0.5,0.5 0 0 1 0,-0.7 l 2.5,-2.5 -2.5,-2.48999998 a 0.50204581,0.50204581 0 0 1 0.71,-0.71 l 2.85,2.84999998 a 0.51,0.51 0 0 1 0,0.71 l -2.85,2.84 a 0.49,0.49 0 0 1 -0.35,0.15 z"
     style="fill:#ff0000"
     id="path333" />
  <path
     d="m 157.57,6.6970458 a 0.5,0.5 0 0 1 -0.35,-0.15 l -2.85,-2.84 a 0.51,0.51 0 0 1 0,-0.71 l 2.85,-2.84999998 a 0.50204581,0.50204581 0 1 1 0.71,0.71 l -2.5,2.48999998 2.5,2.5 a 0.5,0.5 0 0 1 0,0.7 0.51,0.51 0 0 1 -0.36,0.15 z"
     style="fill:#ff0000"
     id="path335" />
  <path
     d="m 160.76,6.6970458 h -0.17 a 0.5,0.5 0 0 1 -0.29,-0.64 l 2.13,-5.69999998 a 0.5,0.5 0 0 1 0.64,-0.29 0.5,0.5 0 0 1 0.3,0.64 l -2.14,5.69999998 a 0.49,0.49 0 0 1 -0.47,0.29 z"
     style="fill:#ff0000"
     id="path337" />
</svg>
