<?xml version="1.0" encoding="UTF-8" standalone="no"?>
<svg
   xmlns:dc="http://purl.org/dc/elements/1.1/"
   xmlns:cc="http://creativecommons.org/ns#"
   xmlns:rdf="http://www.w3.org/1999/02/22-rdf-syntax-ns#"
   xmlns:svg="http://www.w3.org/2000/svg"
   xmlns="http://www.w3.org/2000/svg"
   xmlns:sodipodi="http://sodipodi.sourceforge.net/DTD/sodipodi-0.dtd"
   xmlns:inkscape="http://www.inkscape.org/namespaces/inkscape"
   width="73.554161mm"
   height="77.637627mm"
   viewBox="0 0 73.554161 77.637627"
   version="1.1"
   id="svg8"
   inkscape:version="1.0 (4035a4fb49, 2020-05-01)"
   sodipodi:docname="helm.svg">
  <defs
     id="defs2" />
  <sodipodi:namedview
     id="base"
     pagecolor="#ffffff"
     bordercolor="#666666"
     borderopacity="1.0"
     inkscape:pageopacity="0.0"
     inkscape:pageshadow="2"
     inkscape:zoom="0.22783445"
     inkscape:cx="383.02123"
     inkscape:cy="551.65492"
     inkscape:document-units="mm"
     inkscape:current-layer="layer1"
     inkscape:document-rotation="0"
     showgrid="false"
     fit-margin-top="0"
     fit-margin-left="0"
     fit-margin-right="0"
     fit-margin-bottom="0"
     inkscape:window-width="1274"
     inkscape:window-height="1041"
     inkscape:window-x="1732"
     inkscape:window-y="0"
     inkscape:window-maximized="0" />
  <metadata
     id="metadata5">
    <rdf:RDF>
      <cc:Work
         rdf:about="">
        <dc:format>image/svg+xml</dc:format>
        <dc:type
           rdf:resource="http://purl.org/dc/dcmitype/StillImage" />
        <dc:title></dc:title>
      </cc:Work>
    </rdf:RDF>
  </metadata>
  <g
     inkscape:label="Layer 1"
     inkscape:groupmode="layer"
     id="layer1"
     transform="translate(-4.4922999,-2.2079692)">
    <path
       id="path831"
       d="m 40.214572,79.044014 c -0.96141,-1.56454 -1.18683,-2.857826 -1.19055,-6.830537 -0.002,-2.247288 -0.1132,-3.916979 -0.26818,-4.030845 -0.14552,-0.106912 -0.57674,-0.196209 -0.95826,-0.198437 -1.58692,-0.0093 -6.05828,-1.394801 -8.64721,-2.679494 -1.49946,-0.744074 -2.75394,-1.309698 -2.78773,-1.25694 -3.137718,4.898922 -6.237823,7.901133 -8.158768,7.901133 -2.233381,0 -0.306277,-5.090086 3.556075,-9.392708 L 22.947496,61.233269 21.556627,59.73088 C 20.79165,58.904565 19.916095,57.877871 19.610949,57.449333 l -0.55481,-0.779158 1.426616,-0.947219 1.426615,-0.947219 2.867282,2.831891 c 2.36523,2.336028 3.28419,3.046495 5.24824,4.057507 3.8227,1.96777 7.39467,2.876772 11.29517,2.874418 2.16207,-0.0013 5.7494,-0.605719 7.73309,-1.30292 3.68783,-1.296146 7.84043,-4.088934 9.97597,-6.709235 0.61838,-0.758751 1.21567,-1.487141 1.32733,-1.618644 0.11343,-0.133594 0.84595,0.203713 1.66007,0.764423 1.71057,1.178111 1.72935,1.08062 -0.71727,3.723193 l -1.70354,1.839987 1.30425,1.453663 c 2.63086,2.932258 4.56169,6.568789 4.39615,8.279741 -0.0683,0.706009 -0.20478,0.860941 -0.82063,0.931632 -1.56165,0.179253 -5.10591,-2.860452 -7.20347,-6.178005 -0.54934,-0.868836 -1.02899,-1.6174 -1.06591,-1.663475 -0.0369,-0.04607 -1.30221,0.519491 -2.81178,1.256808 -2.59576,1.267854 -7.10676,2.658444 -8.65313,2.667474 -0.97594,0.0057 -1.46854,0.377134 -1.25123,0.943446 0.34515,0.899438 0.18381,6.290008 -0.23692,7.916045 -0.75186,2.905776 -2.0343,3.83446 -3.03847,2.200328 z M 4.4922999,41.521811 v -9.789584 h 2.513541 2.513542 v 3.571875 3.571875 h 3.1750001 3.175 v -3.571875 -3.571875 h 2.513542 2.513542 v 9.789584 9.789583 h -2.513542 -2.513542 v -3.96875 -3.96875 h -3.175 -3.1750001 v 3.96875 3.96875 h -2.513542 -2.513541 z m 20.6375021,0 v -9.789584 h 6.48229 6.48229 v 1.984375 1.984375 h -3.96875 -3.96875 v 1.852084 1.852083 h 3.43958 3.43959 v 1.984375 1.984375 h -3.43959 -3.43958 v 1.984375 1.984375 h 4.23333 4.23334 v 1.984375 1.984375 h -6.74688 -6.74687 z m 17.19791,0 v -9.789584 h 2.51355 2.51354 v 7.805209 7.805208 h 3.96875 3.96875 v 1.984375 1.984375 h -6.48229 -6.4823 z m 16.66875,-0.0089 v -9.798577 l 2.84427,0.0751 2.84428,0.0751 1.98857,5.736839 c 1.09372,3.155259 2.06164,5.809903 2.15094,5.899205 0.15213,0.15213 0.77504,-1.508739 3.2968,-8.79035 l 1.03035,-2.975139 2.4474,-0.0013 2.44739,-0.0013 v 9.789584 9.789583 h -2.11666 -2.11667 V 47.74779 c 0,-1.960126 0.18673,-4.820735 0.41495,-6.356908 0.22822,-1.536174 0.37704,-2.964148 0.33073,-3.17328 -0.0463,-0.20913 -1.11043,2.264526 -2.36469,5.497015 l -2.28047,5.877247 h -1.27241 -1.27241 l -2.21953,-5.688541 c -1.22074,-3.128698 -2.3113,-5.782342 -2.42348,-5.896983 -0.11217,-0.114644 0.0118,1.254575 0.27545,3.042708 0.26987,1.830155 0.4824,4.783415 0.48626,6.756879 l 0.007,3.50552 h -2.24901 -2.24896 V 41.51286 Z m -39.759768,-13.38878 -1.527481,-0.920533 1.130606,-1.624319 c 0.621833,-0.893376 1.800709,-2.344981 2.619725,-3.22579 l 1.489118,-1.60147 -1.18813,-1.322917 c -2.697633,-3.003662 -4.71715,-6.811828 -4.520491,-8.524205 0.06704,-0.583748 0.237527,-0.753771 0.823241,-0.821001 1.877687,-0.2155278 5.059769,2.795655 8.29936,7.85363 0.0338,0.05276 1.28827,-0.512864 2.78773,-1.256938 2.53496,-1.257915 7.07,-2.675444 8.55942,-2.675444 1.29424,0 1.32526,-0.0826 1.21716,-3.24102 -0.11687,-3.4144318 0.26188,-5.9730558 1.10728,-7.4801858 1.09822,-1.957837 2.43103,-1.188532 3.21836,1.857664 0.41693,1.613083 0.57614,6.6066168 0.25183,7.8987448 -0.1884,0.750671 -0.33553,0.686108 2.79204,1.225177 2.52531,0.435262 4.8622,1.24185 7.4859,2.58379 1.27958,0.654469 2.35995,1.145471 2.4008,1.091116 0.0409,-0.05435 0.62162,-0.934123 1.29059,-1.955039 2.27882,-3.477718 6.15828,-6.5833338 7.39616,-5.920841 1.4462,0.773984 -0.55616,5.4277 -3.97237,9.232261 l -1.30667,1.455208 1.54289,1.650512 c 0.8486,0.907782 2.02308,2.357617 2.60997,3.221855 l 1.06709,1.571342 -1.51812,0.94109 c -1.50556,0.933315 -1.52139,0.936617 -1.91499,0.399783 -4.20189,-5.731088 -7.82279,-8.431426 -13.68376,-10.204876 -2.0666,-0.625325 -2.76238,-0.703502 -6.29228,-0.706995 -3.26553,-0.0032 -4.3438,0.09842 -6.08541,0.573701 -5.46456,1.491247 -10.37574,4.903793 -13.3406,9.269742 -0.604402,0.890022 -1.124242,1.608831 -1.1552,1.597356 -0.03096,-0.01148 -0.743653,-0.435105 -1.583768,-0.941398 z"
       style="fill:#ffffff;stroke-width:1" />
  </g>
</svg>
