<?xml version="1.0" encoding="UTF-8" standalone="no"?>
<svg
   xmlns:dc="http://purl.org/dc/elements/1.1/"
   xmlns:cc="http://creativecommons.org/ns#"
   xmlns:rdf="http://www.w3.org/1999/02/22-rdf-syntax-ns#"
   xmlns:svg="http://www.w3.org/2000/svg"
   xmlns="http://www.w3.org/2000/svg"
   xmlns:sodipodi="http://sodipodi.sourceforge.net/DTD/sodipodi-0.dtd"
   xmlns:inkscape="http://www.inkscape.org/namespaces/inkscape"
   sodipodi:docname="kubernetes.svg"
   inkscape:version="1.0 (4035a4fb49, 2020-05-01)"
   id="svg8"
   version="1.1"
   viewBox="0 0 122.18688 118.84251"
   height="118.84251mm"
   width="122.18688mm">
  <defs
     id="defs2" />
  <sodipodi:namedview
     inkscape:window-maximized="1"
     inkscape:window-y="-8"
     inkscape:window-x="1672"
     inkscape:window-height="1027"
     inkscape:window-width="1920"
     fit-margin-bottom="0"
     fit-margin-right="0"
     fit-margin-left="0"
     fit-margin-top="0"
     showgrid="false"
     inkscape:document-rotation="0"
     inkscape:current-layer="layer1"
     inkscape:document-units="mm"
     inkscape:cy="556.28086"
     inkscape:cx="397.57784"
     inkscape:zoom="0.34085227"
     inkscape:pageshadow="2"
     inkscape:pageopacity="0.0"
     borderopacity="1.0"
     bordercolor="#666666"
     pagecolor="#ffffff"
     id="base" />
  <metadata
     id="metadata5">
    <rdf:RDF>
      <cc:Work
         rdf:about="">
        <dc:format>image/svg+xml</dc:format>
        <dc:type
           rdf:resource="http://purl.org/dc/dcmitype/StillImage" />
        <dc:title></dc:title>
      </cc:Work>
    </rdf:RDF>
  </metadata>
  <g
     transform="translate(-0.64086355,-0.98402151)"
     id="layer1"
     inkscape:groupmode="layer"
     inkscape:label="Layer 1">
    <path
       inkscape:export-ydpi="312.42001"
       inkscape:export-xdpi="312.42001"
       id="path847"
       d="M 35.537367,119.43765 C 33.944038,118.85121 32.530052,117.82464 31.27294,116.34163 30.615617,115.56619 23.629741,106.89502 15.748776,97.072372 0.28266956,77.795762 0.64156956,78.317092 0.64156956,75.128352 c 0,-0.96774 1.86475504,-9.6642 5.42196304,-25.28583 2.98208,-13.09592 5.5364584,-24.07227 5.6763974,-24.39187 0.139939,-0.31962 0.700526,-1.07489 1.24575,-1.67838 1.176196,-1.30191 0.912187,-1.16709 26.634726,-13.6019 l 19.002795,-9.18635049 2.95762,0.10068999 2.957621,0.10069 22.019161,10.6846505 c 23.444567,11.37633 24.022197,11.69976 25.172377,14.09533 0.297,0.61859 2.93523,11.54267 5.86272,24.27574 4.99799,21.73859 5.31662,23.28084 5.22258,25.27864 -0.0706,1.50061 -0.27171,2.47525 -0.68234,3.30729 -0.3202,0.64883 -7.51636,9.81172 -15.99147,20.36198 C 91.708413,117.15606 90.641183,118.41742 89.295683,119.09893 l -1.4365,0.7276 -25.683287,-0.0187 c -20.667656,-0.015 -25.869833,-0.0873 -26.638529,-0.37024 z m 8.231285,-12.81469 c 0.816078,-0.56748 1.565505,-2.05042 2.687169,-5.31726 0.71397,-2.079428 1.076613,-2.727438 2.099743,-3.752018 l 1.236724,-1.23848 1.949119,0.61731 c 6.465419,2.04768 15.51003,1.89907 21.430556,-0.35213 0.59127,-0.22482 0.78016,-0.16789 1.25502,0.37825 0.30745,0.3536 0.67685,0.6429 0.82088,0.6429 0.39566,0 1.52575,2.39017 2.41121,5.099788 0.91356,2.79559 1.7254,3.9983 2.97792,4.41167 2.34979,0.7755 4.1665,-1.87014 2.92833,-4.2645 -0.23099,-0.44669 -0.81203,-1.36352 -1.29118,-2.03738 -1.86391,-2.621328 -2.5834,-4.210678 -2.65647,-5.868148 -0.0382,-0.86612 0.0256,-1.57476 0.14182,-1.57476 0.44634,0 4.44948,-3.16347 6.13108,-4.84507 3.35792,-3.35792 6.25831,-7.75011 7.86903,-11.91642 0.48395,-1.25177 0.99571,-2.20438 1.13726,-2.1169 0.14154,0.0875 0.71662,0.007 1.27796,-0.17777 1.06641,-0.35195 2.01908,-0.11588 7.487837,1.85544 1.79384,0.64662 2.70896,0.54276 3.87691,-0.44001 0.9482,-0.79786 1.03288,-1.81959 0.23488,-2.83408 -0.8668,-1.10197 -1.86823,-1.46907 -4.79583,-1.75805 -4.014147,-0.39624 -5.415667,-0.72865 -5.957257,-1.41292 -0.25759,-0.32545 -0.68395,-0.67374 -0.94748,-0.77398 -0.43347,-0.16488 -0.46204,-0.41572 -0.29978,-2.63177 0.45272,-6.18297 -1.46724,-14.1802 -4.71693,-19.64742 -0.7869,-1.32387 -0.88715,-1.65341 -0.60368,-1.98438 0.18696,-0.21828 0.41514,-0.71405 0.50707,-1.10171 0.1982,-0.83571 1.34767,-1.77684 4.40283,-3.60482 2.80533,-1.67851 3.70297,-2.58945 3.88438,-3.94197 0.25437,-1.89643 -1.69442,-3.40855 -3.50868,-2.72249 -0.42546,0.16089 -2.02372,1.51819 -3.55169,3.01623 -2.85405,2.79814 -3.75405,3.46669 -4.35593,3.23572 -0.1902,-0.073 -0.57195,0.0257 -0.84832,0.21926 -0.4522,0.31673 -0.70644,0.17033 -2.54017,-1.46277 -2.57669,-2.29476 -4.44679,-3.56332 -7.54955,-5.12115 -3.12329,-1.56813 -6.398598,-2.66661 -9.587211,-3.21538 -1.376759,-0.23695 -2.503196,-0.44963 -2.503196,-0.47263 0,-0.023 -0.285674,-0.58999 -0.634831,-1.25997 -0.58365,-1.11993 -0.620207,-1.40792 -0.453435,-3.57187 0.09977,-1.29456 0.312968,-3.0451 0.473773,-3.89011 0.651415,-3.42306 -1.403577,-5.63525 -3.991588,-4.29693 -1.078185,0.55755 -1.439765,1.65465 -1.245841,3.78011 0.484992,5.31567 0.501526,7.35131 0.06266,7.71554 -0.235646,0.19556 -0.428447,0.63865 -0.428447,0.98463 0,0.52677 -0.133073,0.62907 -0.818335,0.62907 -1.618229,0 -6.244461,1.115 -8.838957,2.13034 -4.19024,1.63982 -7.849001,3.95354 -10.902655,6.8946 -1.259041,1.21262 -1.510993,1.35207 -1.948805,1.07866 -0.27655,-0.17271 -0.808593,-0.31402 -1.182319,-0.31402 -0.510329,0 -1.493041,-0.79047 -3.94715,-3.175 -3.222783,-3.13141 -3.284503,-3.175 -4.495487,-3.175 -1.686573,0 -2.526707,0.82501 -2.526707,2.48121 0,1.5922 0.717931,2.39502 3.714906,4.15416 2.764662,1.62277 4.487177,3.01126 4.487177,3.61702 0,0.23186 0.180837,0.62139 0.401859,0.86561 0.363945,0.40216 0.252108,0.73675 -1.185357,3.54633 -2.895991,5.66032 -3.79227,9.42443 -3.84388,16.14317 -0.02949,3.83976 -0.108151,4.76996 -0.411919,4.87121 -0.206507,0.0688 -0.588288,0.39572 -0.848402,0.7264 -0.546653,0.69495 -1.926018,1.02406 -5.961857,1.42243 -3.798527,0.37496 -5.083777,1.16546 -5.083777,3.12684 0,1.16216 0.372892,1.81371 1.317621,2.30225 1.144118,0.59164 1.837269,0.50334 4.830361,-0.61536 3.649099,-1.36389 5.110856,-1.71277 5.747861,-1.37185 0.277633,0.14858 0.856893,0.27015 1.287246,0.27015 0.633738,0 0.816541,0.1383 0.96176,0.72761 0.342575,1.39019 2.536135,5.71368 4.046977,7.97656 1.906061,2.85482 6.181309,7.18097 8.83255,8.93772 1.497817,0.99248 1.962484,1.43386 1.794325,1.70444 -0.124809,0.20082 -0.162274,0.78185 -0.08325,1.29117 0.164579,1.0608 -0.6487,2.77842 -2.866548,6.054058 -1.965672,2.90319 -1.946812,4.64542 0.06118,5.65147 0.987049,0.49453 1.598993,0.42446 2.644923,-0.30285 z M 58.056151,91.493072 c -0.945885,-0.1213 -2.524517,-0.41694 -3.508068,-0.65698 l -1.788276,-0.43646 1.30851,-2.41832 c 6.124164,-11.31837 6.348206,-11.60877 8.173357,-10.59409 0.755541,0.42003 1.466358,1.52693 4.315711,6.72056 l 3.411193,6.21771 -1.127569,0.34031 c -1.690788,0.51029 -5.959943,1.11606 -7.609858,1.07979 -0.800365,-0.0176 -2.229115,-0.13123 -3.175,-0.25252 z m -13.161218,-5.39197 c -1.955904,-1.47028 -4.447448,-4.10419 -5.885469,-6.22177 -1.354473,-1.99455 -3.244381,-5.87108 -2.980123,-6.11275 0.239718,-0.21923 12.852852,-2.35944 13.902898,-2.35906 0.971309,2.6e-4 2.038496,1.07264 2.038496,2.04824 0,0.55498 -5.022387,13.31658 -5.418677,13.76855 -0.0356,0.0406 -0.781304,-0.46484 -1.657125,-1.12321 z m 31.32429,0.98038 c -0.5385,-0.87131 -5.463073,-13.2285 -5.463073,-13.70844 0,-0.99787 1.062906,-2.0123 2.124103,-2.02723 0.97233,-0.0137 13.78727,2.12681 13.99866,2.33821 0.23702,0.23702 -0.80084,2.63136 -2.04183,4.71054 -0.68675,1.15059 -2.19484,3.09646 -3.35131,4.32414 -2.22947,2.36676 -5.05405,4.70663 -5.26655,4.36278 z m -16.682496,-18.93977 -1.826715,-0.84681 -0.487878,-2.0676 -0.487878,-2.06759 1.229145,-1.5645 1.229143,-1.56451 h 2.206059 2.206059 l 1.194329,1.52135 c 0.656881,0.83675 1.194403,1.67645 1.194493,1.866 9.2e-5,0.18956 -0.184113,1.14206 -0.409345,2.11667 l -0.409514,1.77202 -1.746901,0.79375 c -0.960795,0.43656 -1.818309,0.81497 -1.90559,0.8409 -0.08728,0.0259 -0.980712,-0.33393 -1.985407,-0.79968 z m -25.429129,-2.37006 c -0.246473,-1.66567 0.331033,-6.4999 1.088919,-9.1152 0.368395,-1.27126 1.135462,-3.30506 1.704591,-4.51955 l 1.034781,-2.20815 0.613454,0.48691 c 1.829684,1.45227 10.216581,9.15573 10.351884,9.50832 0.262805,0.68486 0.164391,1.79739 -0.201615,2.27913 -0.450496,0.59295 -0.657614,0.66559 -7.741354,2.71486 -3.329231,0.96313 -6.195607,1.79913 -6.369724,1.85778 -0.197475,0.0665 -0.378413,-0.31124 -0.480936,-1.0041 z m 47.496465,-0.87835 c -3.71078,-1.08636 -6.95234,-2.17879 -7.20346,-2.42763 -0.25113,-0.24884 -0.53633,-0.85112 -0.63379,-1.3384 -0.16761,-0.83807 -0.0706,-0.98823 1.79352,-2.77721 1.08389,-1.04018 3.59913,-3.35654 5.58943,-5.14747 l 3.61873,-3.25623 0.5368,0.87498 c 0.79082,1.28904 2.054,4.67912 2.66928,7.16369 0.57344,2.31564 1.0294,8.9406 0.61283,8.90415 -0.13006,-0.0114 -3.27256,-0.90953 -6.98334,-1.99588 z M 54.351984,52.964162 c -0.218281,-0.0801 -2.986074,-1.9982 -6.150649,-4.2625 l -5.753774,-4.11692 0.594399,-0.64079 c 1.85479,-1.99955 5.684359,-4.34933 9.095819,-5.58107 1.949458,-0.70387 5.585132,-1.53618 5.752809,-1.31698 0.216305,0.28278 -0.82291,14.46085 -1.096042,14.95333 -0.233529,0.42108 -1.803053,1.30061 -2.019022,1.13142 -0.01466,-0.0115 -0.205258,-0.0864 -0.42354,-0.16649 z M 66.3785,52.237522 c -0.378661,-0.37866 -0.649946,-0.95781 -0.650663,-1.38906 -0.0013,-0.83524 -0.429514,-8.32885 -0.666856,-11.6722 l -0.156271,-2.20131 1.272075,0.18365 c 3.021702,0.43625 7.611078,2.27698 10.400198,4.17137 1.59965,1.08649 3.70417,2.85868 3.70417,3.11923 0,0.11587 -2.58815,2.06176 -5.75143,4.32421 -6.305161,4.50958 -6.866988,4.74834 -8.151223,3.46411 z"
       style="fill:#ffffff;stroke-width:1" />
  </g>
</svg>
