<?xml version="1.0" encoding="UTF-8" standalone="no"?>
<svg
   xmlns:dc="http://purl.org/dc/elements/1.1/"
   xmlns:cc="http://creativecommons.org/ns#"
   xmlns:rdf="http://www.w3.org/1999/02/22-rdf-syntax-ns#"
   xmlns:svg="http://www.w3.org/2000/svg"
   xmlns="http://www.w3.org/2000/svg"
   xmlns:sodipodi="http://sodipodi.sourceforge.net/DTD/sodipodi-0.dtd"
   xmlns:inkscape="http://www.inkscape.org/namespaces/inkscape"
   width="140.61914"
   height="143.07422"
   viewBox="0 0 37.205482 37.855053"
   version="1.1"
   id="svg96"
   inkscape:version="1.0 (4035a4fb49, 2020-05-01)"
   sodipodi:docname="Logo - Copy.svg">
  <defs
     id="defs90">
    <clipPath
       id="clipPath20"
       clipPathUnits="userSpaceOnUse">
      <path
         id="path18"
         d="M 0,841.89 H 595.276 V 0 H 0 Z" />
    </clipPath>
    <clipPath
       clipPathUnits="userSpaceOnUse"
       id="clipPath151">
      <g
         transform="matrix(0.35277777,0,0,-0.35277777,-2.1539033,278.56923)"
         id="g159"
         style="opacity:0.6;fill:#b3b3b3">
        <g
           id="g157"
           clip-path="url(#clipPath20)"
           style="fill:#b3b3b3">
          <g
             id="g155"
             transform="translate(177.9165,699.6451)"
             style="fill:#b3b3b3">
            <path
               d="m 0,0 c 0,-29.631 -24.021,-53.653 -53.653,-53.653 -29.632,0 -53.653,24.022 -53.653,53.653 0,29.632 24.021,53.653 53.653,53.653 C -24.021,53.653 0,29.632 0,0"
               style="fill:#b3b3b3;fill-opacity:1;fill-rule:nonzero;stroke:none"
               id="path153" />
          </g>
        </g>
      </g>
    </clipPath>
    <clipPath
       clipPathUnits="userSpaceOnUse"
       id="clipPath161">
      <g
         transform="matrix(0.35277777,0,0,-0.35277777,-2.1539033,278.56923)"
         id="g169"
         style="opacity:0.6;fill:#b3b3b3">
        <g
           id="g167"
           clip-path="url(#clipPath20)"
           style="fill:#b3b3b3">
          <g
             id="g165"
             transform="translate(177.9165,699.6451)"
             style="fill:#b3b3b3">
            <path
               d="m 0,0 c 0,-29.631 -24.021,-53.653 -53.653,-53.653 -29.632,0 -53.653,24.022 -53.653,53.653 0,29.632 24.021,53.653 53.653,53.653 C -24.021,53.653 0,29.632 0,0"
               style="fill:#b3b3b3;fill-opacity:1;fill-rule:nonzero;stroke:none"
               id="path163" />
          </g>
        </g>
      </g>
    </clipPath>
  </defs>
  <sodipodi:namedview
     id="base"
     pagecolor="#ffffff"
     bordercolor="#666666"
     borderopacity="1.0"
     inkscape:pageopacity="0.0"
     inkscape:pageshadow="2"
     inkscape:zoom="1.979899"
     inkscape:cx="180.3621"
     inkscape:cy="149.18093"
     inkscape:document-units="mm"
     inkscape:current-layer="layer1"
     inkscape:document-rotation="0"
     showgrid="false"
     fit-margin-top="0"
     fit-margin-left="0"
     fit-margin-right="0"
     fit-margin-bottom="0"
     units="px"
     inkscape:window-width="1920"
     inkscape:window-height="1027"
     inkscape:window-x="1672"
     inkscape:window-y="-8"
     inkscape:window-maximized="1" />
  <metadata
     id="metadata93">
    <rdf:RDF>
      <cc:Work
         rdf:about="">
        <dc:format>image/svg+xml</dc:format>
        <dc:type
           rdf:resource="http://purl.org/dc/dcmitype/StillImage" />
        <dc:title></dc:title>
      </cc:Work>
    </rdf:RDF>
  </metadata>
  <g
     inkscape:label="Layer 1"
     inkscape:groupmode="layer"
     id="layer1"
     transform="translate(-5.0218785,-6.2743681)">
    <g
       id="g14"
       transform="matrix(0.35277777,0,0,-0.35277777,-20.461866,272.02114)">
      <g
         clip-path="url(#clipPath20)"
         id="g16">
        <g
           transform="translate(177.9165,699.6451)"
           id="g22">
          <path
             id="path24"
             style="fill:#ed1c24;fill-opacity:1;fill-rule:nonzero;stroke:none;stroke-width:1.33333"
             d="m 157.54297,48.462891 c -33.4615,0 -61.549964,22.975164 -69.367189,54.009769 0.13094,-0.0263 0.244905,-0.0543 0.378907,-0.0801 1.354615,-0.31261 2.761888,-0.5748 4.220703,-0.7832 1.510916,-0.20844 3.022289,-0.36452 4.533203,-0.46876 1.563016,-0.15629 3.048366,-0.23437 4.455076,-0.23437 3.38654,0 6.40733,0.52244 9.06445,1.56445 2.65716,0.98991 4.89719,2.42126 6.72071,4.29688 1.82352,1.82352 3.20477,4.06357 4.14258,6.7207 0.98991,2.65713 1.48437,5.62782 1.48437,8.91016 0,3.17813 -0.39037,6.0688 -1.17187,8.67383 -0.78151,2.60502 -1.92659,4.84703 -3.4375,6.72265 -1.51092,1.87562 -3.38663,3.33299 -5.62696,4.375 -2.24032,1.04201 -4.82065,1.56446 -7.73828,1.56446 -1.61512,0 -3.12649,-0.1581 -4.5332,-0.47071 -1.406717,-0.3126 -2.759988,-0.75502 -4.062501,-1.32812 v 15.47461 h -0.03906 c 12.586281,20.47093 35.183201,34.12695 60.976561,34.12695 31.37757,0 58.01705,-20.21078 67.66211,-48.31641 -1.19836,0.24272 -2.48445,0.44323 -3.8711,0.5918 -1.45881,0.1563 -2.91813,0.23438 -4.37695,0.23438 -3.69914,0 -6.93008,-0.54847 -9.69141,-1.64258 -2.70922,-1.09412 -4.9753,-2.57751 -6.79882,-4.45313 -1.77142,-1.92772 -3.09867,-4.19575 -3.98438,-6.80078 -0.83361,-2.60503 -1.25195,-5.41762 -1.25195,-8.43945 0,-3.64704 0.54846,-6.82593 1.64258,-9.53516 1.14621,-2.76133 2.63156,-5.05343 4.45507,-6.87695 1.82352,-1.82352 3.90743,-3.20477 6.25196,-4.14258 2.39662,-0.93781 4.84488,-1.40625 7.3457,-1.40625 5.12964,0 9.31346,1.38989 12.55078,4.16797 -0.66957,-3.11914 -1.53982,-6.163593 -2.60156,-9.117189 -0.38573,0.06813 -0.78428,0.103516 -1.19727,0.103516 -1.61511,0 -3.02043,-0.520489 -4.21875,-1.5625 -1.19831,-1.094113 -1.79882,-2.553435 -1.79882,-4.376953 0,-1.823519 0.60051,-3.254865 1.79882,-4.296875 0.18873,-0.172315 0.38492,-0.325527 0.58399,-0.470703 -12.22739,-21.909987 -35.62709,-36.734375 -62.5,-36.734375 z m 8.85156,33.84375 v 34.386719 c 1.14621,-1.25041 2.31731,-2.55359 3.51563,-3.9082 1.25041,-1.35462 2.44949,-2.68187 3.5957,-3.98438 1.14621,-1.35461 2.21321,-2.63177 3.20312,-3.83008 1.04202,-1.19831 1.9288,-2.24124 2.65821,-3.12695 h 13.83203 c -2.76133,3.17813 -5.46983,6.2269 -8.12695,9.14453 -2.60503,2.86553 -5.47163,5.83427 -8.59766,8.9082 1.56302,1.40672 3.17849,3.10026 4.8457,5.08008 1.66722,1.92772 3.28269,3.93356 4.84571,6.01758 1.56301,2.08402 2.99631,4.16793 4.29882,6.25195 1.30252,2.08403 2.39554,3.98576 3.28125,5.70508 h -13.36328 c -0.83361,-1.35461 -1.79847,-2.83801 -2.89258,-4.45312 -1.04201,-1.66722 -2.16106,-3.30872 -3.35937,-4.92383 -1.19831,-1.66722 -2.47547,-3.25666 -3.83008,-4.76758 -1.30251,-1.51091 -2.60374,-2.78807 -3.90625,-3.83008 v 17.97461 H 154.75 V 84.181641 Z m -28.44726,0.78125 c 1.87561,0 3.49109,0.626541 4.8457,1.876953 1.40671,1.198314 2.10937,2.863879 2.10937,5 0,2.136123 -0.70266,3.829667 -2.10937,5.080078 -1.35461,1.198312 -2.97009,1.798828 -4.8457,1.798828 -1.87563,0 -3.51712,-0.600516 -4.92383,-1.798828 -1.35462,-1.250411 -2.03125,-2.943955 -2.03125,-5.080078 0,-2.136121 0.67663,-3.801686 2.03125,-5 1.40671,-1.250412 3.0482,-1.876953 4.92383,-1.876953 z m 68.30273,0.9375 c 1.61512,0 3.02239,0.548468 4.2207,1.642578 1.19831,1.04201 1.79688,2.473356 1.79688,4.296875 0,1.823518 -0.59857,3.28284 -1.79688,4.376953 -1.19831,1.042011 -2.60558,1.5625 -4.2207,1.5625 -1.61512,0 -3.02044,-0.520489 -4.21875,-1.5625 -1.19831,-1.094113 -1.79883,-2.553435 -1.79883,-4.376953 0,-1.823519 0.60052,-3.254865 1.79883,-4.296875 1.19831,-1.09411 2.60363,-1.642578 4.21875,-1.642578 z m -74.08594,17.818359 h 11.64453 v 41.10742 h -11.64453 z m 82.91797,8.51953 c -1.30251,0 -2.42352,0.23422 -3.36133,0.70313 -0.93781,0.4168 -1.71854,0.98934 -2.34375,1.71875 -0.6252,0.7294 -1.11967,1.59017 -1.48437,2.58007 -0.3126,0.93781 -0.54878,1.90072 -0.70508,2.89063 h 15.39648 c -0.0521,-0.98991 -0.23428,-1.95282 -0.54687,-2.89063 -0.2605,-0.9378 -0.70292,-1.77254 -1.32813,-2.50195 -0.5731,-0.7294 -1.32976,-1.32797 -2.26757,-1.79687 -0.88571,-0.46891 -2.00477,-0.70313 -3.35938,-0.70313 z m -113.39648,0.46875 c -1.04201,0 -2.006872,0.0521 -2.892581,0.15625 -0.88571,0.0521 -1.614395,0.13019 -2.1875,0.23438 v 21.02343 c 0.729406,0.46891 1.666287,0.85927 2.8125,1.17188 1.198311,0.3126 2.397391,0.46875 3.595701,0.46875 5.52266,0 8.28317,-3.72541 8.28321,-11.17578 0,-3.59494 -0.80676,-6.45958 -2.42188,-8.59571 -1.61512,-2.18822 -4.01132,-3.2832 -7.18945,-3.2832 z m 105.50195,15.39649 c 0.2605,2.39662 1.38151,4.29836 3.36133,5.70507 1.97982,1.40672 4.63627,2.10938 7.9707,2.10938 2.13612,0 4.22003,-0.18217 6.25195,-0.54688 1.18474,-0.23694 2.22994,-0.5016 3.16211,-0.78906 0.38199,-2.12927 0.67226,-4.28834 0.86133,-6.47851 z"
             transform="matrix(0.75000002,0,0,-0.75000002,-171.81095,90.000007)" />
        </g>
      </g>
    </g>
  </g>
</svg>
