<?xml version="1.0" encoding="UTF-8" standalone="no"?>
<svg
   xmlns:dc="http://purl.org/dc/elements/1.1/"
   xmlns:cc="http://creativecommons.org/ns#"
   xmlns:rdf="http://www.w3.org/1999/02/22-rdf-syntax-ns#"
   xmlns:svg="http://www.w3.org/2000/svg"
   xmlns="http://www.w3.org/2000/svg"
   xmlns:sodipodi="http://sodipodi.sourceforge.net/DTD/sodipodi-0.dtd"
   xmlns:inkscape="http://www.inkscape.org/namespaces/inkscape"
   sodipodi:docname="serverless.svg"
   inkscape:version="1.0 (4035a4fb49, 2020-05-01)"
   id="svg8"
   version="1.1"
   viewBox="0 0 23.566004 18.667595"
   height="18.667595mm"
   width="23.566004mm">
  <defs
     id="defs2" />
  <sodipodi:namedview
     inkscape:window-maximized="0"
     inkscape:window-y="0"
     inkscape:window-x="1836"
     inkscape:window-height="1041"
     inkscape:window-width="1274"
     fit-margin-bottom="0"
     fit-margin-right="0"
     fit-margin-left="0"
     fit-margin-top="0"
     showgrid="false"
     inkscape:document-rotation="0"
     inkscape:current-layer="layer1"
     inkscape:document-units="mm"
     inkscape:cy="329.41878"
     inkscape:cx="223.97197"
     inkscape:zoom="0.79870925"
     inkscape:pageshadow="2"
     inkscape:pageopacity="0.0"
     borderopacity="1.0"
     bordercolor="#666666"
     pagecolor="#ffffff"
     id="base" />
  <metadata
     id="metadata5">
    <rdf:RDF>
      <cc:Work
         rdf:about="">
        <dc:format>image/svg+xml</dc:format>
        <dc:type
           rdf:resource="http://purl.org/dc/dcmitype/StillImage" />
        <dc:title></dc:title>
      </cc:Work>
    </rdf:RDF>
  </metadata>
  <g
     transform="translate(-9.284371,-7.4698698)"
     id="layer1"
     inkscape:groupmode="layer"
     inkscape:label="Layer 1">
    <path
       d="m 32.765626,7.4698698 -5.109766,0.028422 -5.110284,0.027905 -0.622184,1.7456298 c -0.342217,0.9601154 -0.627353,1.8030754 -0.633552,1.8727554 -0.0062,0.06969 2.573451,0.126606 5.732467,0.126606 h 5.743319 V 9.3705298 Z M 9.284371,7.5546192 v 1.8582836 1.8582852 h 3.870566 3.871081 l 0.375169,-1.1405 C 17.607501,9.5035305 17.87659,8.6672805 17.999084,8.2724058 l 0.222727,-0.7177866 h -4.468979 z m 0,7.4331388 v 1.862418 1.862418 l 2.645833,-0.04651 2.645834,-0.04651 0.56379,-1.683102 c 0.310202,-0.925562 0.56379,-1.74267 0.56379,-1.815909 0,-0.07324 -1.444292,-0.132808 -3.209624,-0.132808 z m 23.460583,0 -6.366537,0.0015 -6.367052,0.0016 -0.614434,1.856735 -0.614431,1.856219 7.034196,5.16e-4 7.033678,5.16e-4 -0.05271,-1.858801 z m -23.460583,7.43262 v 1.858285 1.858285 h 1.422135 1.422136 l 0.449069,-1.393714 c 0.247134,-0.766519 0.515496,-1.602774 0.596345,-1.858285 l 0.147277,-0.464571 h -2.01848 z m 8.305435,0 -0.545185,1.647444 c -0.300043,0.905891 -0.580985,1.74163 -0.623734,1.857769 v 5.16e-4 c -0.06151,0.167111 1.644227,0.211018 8.175728,0.211357 h 8.253759 l -0.05271,-1.858285 -0.05271,-1.858801 h -7.577831 z"
       style="fill:#ffffff;stroke-width:1"
       id="path889" />
  </g>
</svg>
